<svg width="31" height="30" viewBox="0 0 31 30" fill="none" xmlns="http://www.w3.org/2000/svg">
<g clip-path="url(#clip0_25_1287)">
<path d="M3.94238 22.0056C3.94238 22.6575 4.47066 23.1858 5.12158 23.1858C5.77344 23.1857 6.30078 22.6575 6.30078 22.0056V21.3318H3.94238V22.0056Z" fill="white"/>
<path d="M24.6992 22.0056C24.6992 22.6575 25.2266 23.1858 25.8784 23.1858C26.5293 23.1858 27.0576 22.6575 27.0576 22.0056V21.3318H24.6992V22.0056Z" fill="white"/>
<path d="M15.5 8.75885C12.8138 8.75885 10.6367 10.936 10.6367 13.6221C10.6367 16.3083 12.8138 18.4854 15.5 18.4854C18.1862 18.4854 20.3633 16.3083 20.3633 13.6221C20.3633 10.936 18.1862 8.75885 15.5 8.75885ZM15.5 16.6535C13.8264 16.6535 12.4696 15.2967 12.4696 13.6222C12.4696 11.9486 13.8264 10.5918 15.5 10.5918C17.1736 10.5918 18.5304 11.9486 18.5304 13.6222C18.5304 15.2967 17.1736 16.6535 15.5 16.6535Z" fill="white"/>
<path d="M28.2625 8.58034C28.2625 8.58034 28.9839 8.71312 27.6317 8.36243C24.6287 7.58238 19.9549 6.81427 15.5 6.81427C11.0451 6.81427 6.37127 7.58238 3.36834 8.36243C2.01518 8.71306 2.73752 8.58034 2.73752 8.58034C1.39813 9.04265 0.5 10.3034 0.5 11.7197V17.7732C0.5 19.2408 1.69021 20.4301 3.15688 20.4301H15.5H27.8422C29.3098 20.4301 30.5 19.2408 30.5 17.7732V11.7197C30.5 10.3034 29.6019 9.04265 28.2625 8.58034ZM7.40123 16.3714H3.94971C3.6732 16.3714 3.44891 16.1471 3.44891 15.8706C3.44891 15.5933 3.6732 15.3689 3.94971 15.3689H7.40123C7.67773 15.3689 7.90203 15.5932 7.90203 15.8706C7.90203 16.1471 7.67773 16.3714 7.40123 16.3714ZM7.40123 13.1982H3.94971C3.6732 13.1982 3.44891 12.9739 3.44891 12.6974C3.44891 12.4209 3.6732 12.1966 3.94971 12.1966H7.40123C7.67773 12.1966 7.90203 12.4209 7.90203 12.6974C7.90203 12.9739 7.67773 13.1982 7.40123 13.1982ZM15.5 19.4229C12.3011 19.4229 9.69922 16.821 9.69922 13.6221C9.69922 10.4242 12.3011 7.82132 15.5 7.82132C18.6989 7.82132 21.3008 10.4242 21.3008 13.6221C21.3008 16.821 18.6989 19.4229 15.5 19.4229ZM25.8317 13.0169C25.2494 13.0169 24.777 12.5445 24.777 11.9623C24.777 11.38 25.2495 10.9076 25.8317 10.9076C26.4149 10.9076 26.8864 11.38 26.8864 11.9623C26.8864 12.5445 26.4149 13.0169 25.8317 13.0169Z" fill="white"/>
</g>
<defs>
<clipPath id="clip0_25_1287">
<rect width="30" height="30" fill="white" transform="translate(0.5)"/>
</clipPath>
</defs>
</svg>
