<svg width="31" height="30" viewBox="0 0 31 30" fill="none" xmlns="http://www.w3.org/2000/svg">
<g id="touch-action-svgrepo-com (2) 1">
<g id="SVGRepo_iconCarrier">
<g id="Group">
<g id="Group_2">
<path id="Vector" d="M22.3076 17.1924L17.5768 15.577C17.2307 15.4616 16.9422 15.1155 16.9422 14.7116V8.42315C16.9422 7.44238 16.1345 6.69238 15.1537 6.69238H14.9807C13.9999 6.69238 13.1922 7.50008 13.1922 8.42315V20.827C13.1922 21.8655 11.8653 22.327 11.2883 21.4039L10.0768 18.8655C9.4422 17.7693 7.99989 17.4808 6.96143 18.2308L6.21143 18.8078L10.1922 28.2116C10.3653 28.6155 10.7691 28.8462 11.2307 28.8462H21.673C22.1922 28.8462 22.596 28.5001 22.7114 28.0385L24.5576 21.4616C25.0191 19.6155 23.9807 17.827 22.3076 17.1924Z" fill="white"/>
</g>
<g id="Group_3">
<path id="Vector_2" d="M10.4228 13.2694V8.53863C10.4228 8.42325 10.4228 8.42325 10.4228 8.30786C10.5382 5.94248 12.4421 4.03863 14.8075 3.92325C14.9228 3.92325 14.9228 3.92325 15.0382 3.92325C15.1536 3.92325 15.1536 3.92325 15.269 3.92325C17.6344 4.03863 19.5382 5.94248 19.6536 8.30786C19.6536 8.42325 19.6536 8.42325 19.6536 8.53863V13.2694C19.6536 13.6732 20.1728 13.8463 20.4613 13.6156C21.7305 12.2886 22.4805 10.5002 22.4805 8.59632C22.4805 4.32709 18.7882 0.865553 14.4036 1.2694C11.0575 1.61555 8.28823 4.15402 7.769 7.44248C7.42284 9.75017 8.11515 12.0002 9.67284 13.6156C9.90361 13.8463 10.4228 13.6732 10.4228 13.2694Z" fill="white"/>
</g>
</g>
</g>
</g>
</svg>
