<svg width="31" height="30" viewBox="0 0 31 30" fill="none" xmlns="http://www.w3.org/2000/svg">
<g clip-path="url(#clip0_25_1296)">
<path d="M26.2836 3.32898H4.71646C2.38863 3.32898 0.500488 5.21522 0.500488 7.544V24.3308H20.6648V22.7472H26.8165V24.3308H30.5005V7.54305C30.4995 5.21522 28.6114 3.32898 26.2836 3.32898ZM27.6873 21.5167H3.31272V7.54305C3.31272 6.76933 3.94274 6.13931 4.71646 6.13931H26.2836C27.0573 6.13931 27.6883 6.76933 27.6883 7.54305V21.5167H27.6873Z" fill="white"/>
<path d="M9.84419 11.1109L8.17969 16.5545H9.45685L9.84419 15.1575H11.404L11.8237 16.5545H13.1475L11.4601 11.1109H9.84419ZM10.0212 14.2362L10.3438 13.0818C10.4333 12.7668 10.5132 12.3548 10.596 12.0312H10.6112C10.6921 12.3548 10.7902 12.7583 10.8853 13.0818L11.2251 14.2362H10.0212Z" fill="white"/>
<path d="M16.8314 13.6224V13.6063C17.4462 13.3807 17.7289 12.9277 17.7289 12.4433C17.7289 11.9503 17.4539 11.5792 17.0741 11.3765C16.6792 11.1423 16.2186 11.07 15.4677 11.07C14.8538 11.07 14.1991 11.1185 13.8765 11.1833V16.5289C14.1506 16.5698 14.6026 16.6088 15.2079 16.6088C16.2909 16.6088 16.9523 16.4309 17.3482 16.1158C17.6861 15.8408 17.9135 15.4544 17.9135 14.9615C17.9154 14.2601 17.4548 13.7918 16.8314 13.6224ZM15.0956 11.9989C15.2012 11.9827 15.3535 11.9665 15.6209 11.9665C16.1786 11.9665 16.4946 12.1844 16.4946 12.5965C16.4946 13 16.1462 13.2675 15.5 13.2675H15.0956V11.9989ZM15.5733 15.6971C15.3611 15.6971 15.2183 15.6971 15.0956 15.6809V14.1468H15.5162C16.131 14.1468 16.6221 14.3647 16.6221 14.9148C16.623 15.4887 16.131 15.6971 15.5733 15.6971Z" fill="white"/>
<path d="M21.5366 12.0398C21.9715 12.0398 22.3189 12.1369 22.5711 12.2415L22.8223 11.2642C22.6044 11.1509 22.119 11.0215 21.4814 11.0215C19.8331 11.0215 18.5093 12.055 18.5093 13.9127C18.5093 15.463 19.48 16.6355 21.3586 16.6355C22.022 16.6355 22.5302 16.5137 22.7586 16.3995L22.573 15.4383C22.3312 15.5353 21.9182 15.6172 21.5471 15.6172C20.4488 15.6172 19.8036 14.9291 19.8036 13.8404C19.8007 12.6289 20.5583 12.0398 21.5366 12.0398Z" fill="white"/>
<path d="M30.4986 25.2064H0.500488V26.671H30.4986V25.2064Z" fill="white"/>
</g>
<defs>
<clipPath id="clip0_25_1296">
<rect width="30" height="30" fill="white" transform="translate(0.5)"/>
</clipPath>
</defs>
</svg>
